#Comment line ignore any data following # character 
#Hierarchical Translation and Rotation (.htr) file 
[Header]	
#Header keywords are followed by a single value 
FileType HTR		#Single word string
DataType HTRS		#Translation followed by rotation and scale data
FileVersion 1		#integer
NumSegments 84		#integer
NumFrames 2		#integer
DataFrameRate 30		#integer, data frame rate in this file
EulerRotationOrder ZYX
CalibrationUnits mm
RotationUnits Degrees
GlobalAxisofGravity Y
BoneLengthAxis Y
ScaleFactor 1.00
[SegmentNames&Hierarchy]
#CHILD	PARENT
MASTER GLOBAL
root MASTER
chest root
L_mid_tent01 root
R_mid_tent01 root
spine01 root
Bip01_Neck chest
L_humerus chest
R_humerus chest
weapon_bone chest
Bip01_Head Bip01_Neck
eye_left_bone Bip01_Head
eye_right_bone Bip01_Head
L_forearm L_humerus
L_front_hand L_forearm
L_weapon_bone L_forearm
L_front_hand01_01 L_front_hand
L_front_hand02_01 L_front_hand
L_front_hand03_01 L_front_hand
L_front_hand01_02 L_front_hand01_01
L_front_hand02_02 L_front_hand02_01
L_front_hand03_02 L_front_hand03_01
R_forearm R_humerus
R_front_hand R_forearm
R_weapon_bone R_forearm
R_front_hand01_01 R_front_hand
R_front_hand02_01 R_front_hand
R_front_hand03_01 R_front_hand
R_front_hand01_02 R_front_hand01_01
R_front_hand02_02 R_front_hand02_01
R_front_hand03_02 R_front_hand03_01
null_rope01_connect L_mid_tent01
Rope1_Seg01 null_rope01_connect
Rope1_Seg02 Rope1_Seg01
Rope1_Seg03 Rope1_Seg02
Rope1_Seg04 Rope1_Seg03
Rope1_Seg05 Rope1_Seg04
Rope1_Seg06 Rope1_Seg05
Rope1_Seg07 Rope1_Seg06
Rope1_Seg09 Rope1_Seg07
L_mid_hand01 Rope1_Seg09
L_mid_hand02 Rope1_Seg09
L_mid_hand03 Rope1_Seg09
null_rope02_connect R_mid_tent01
Rope2_Seg01 null_rope02_connect
Rope2_Seg02 Rope2_Seg01
Rope2_Seg03 Rope2_Seg02
Rope2_Seg04 Rope2_Seg03
Rope2_Seg05 Rope2_Seg04
Rope2_Seg06 Rope2_Seg05
Rope2_Seg07 Rope2_Seg06
Rope2_Seg09 Rope2_Seg07
R_mid_hand01 Rope2_Seg09
R_mid_hand02 Rope2_Seg09
R_mid_hand03 Rope2_Seg09
spine02 spine01
spine03 spine02
pelvis spine03
null_rope03_connect pelvis
null_rope04_connect pelvis
Rope3_Seg01 null_rope03_connect
Rope3_Seg02 Rope3_Seg01
Rope3_Seg03 Rope3_Seg02
Rope3_Seg04 Rope3_Seg03
Rope3_Seg05 Rope3_Seg04
Rope3_Seg06 Rope3_Seg05
Rope3_Seg07 Rope3_Seg06
Rope3_Seg08 Rope3_Seg07
Rope3_Seg09 Rope3_Seg08
R_rear_hand01 Rope3_Seg09
R_rear_hand02 Rope3_Seg09
R_rear_hand03 Rope3_Seg09
Rope4_Seg01 null_rope04_connect
Rope4_Seg02 Rope4_Seg01
Rope4_Seg03 Rope4_Seg02
Rope4_Seg04 Rope4_Seg03
Rope4_Seg05 Rope4_Seg04
Rope4_Seg06 Rope4_Seg05
Rope4_Seg07 Rope4_Seg06
Rope4_Seg08 Rope4_Seg07
Rope4_Seg09 Rope4_Seg08
L_rear_hand01 Rope4_Seg09
L_rear_hand02 Rope4_Seg09
L_rear_hand03 Rope4_Seg09
[BasePosition]
#SegmentName Tx, Ty, Tz, Rx, Ry, Rz, BoneLength
MASTER 0.000000 0.000000 0.000000 -90.000000 0.000000 0.000000 10.000000 
root 0.000000 0.000000 0.000000 0.000000 0.000000 0.000000 10.000000 
chest 0.000000 0.000000 0.000000 0.000000 0.000000 0.000000 10.000000 
L_mid_tent01 0.000000 0.000000 0.000000 0.000000 0.000000 0.000000 10.000000 
R_mid_tent01 0.000000 0.000000 0.000000 0.000000 0.000000 0.000000 10.000000 
spine01 0.000000 0.000000 0.000000 0.000000 0.000000 0.000000 10.000000 
Bip01_Neck 0.000000 0.000000 0.000000 0.000000 0.000000 0.000000 10.000000 
L_humerus 0.000000 0.000000 0.000000 0.000000 0.000000 0.000000 10.000000 
R_humerus 0.000000 0.000000 0.000000 0.000000 0.000000 0.000000 10.000000 
weapon_bone 0.000000 0.000000 0.000000 0.000000 0.000000 0.000000 10.000000 
Bip01_Head 0.000000 0.000000 0.000000 0.000000 0.000000 0.000000 10.000000 
eye_left_bone 0.000000 0.000000 0.000000 0.000000 0.000000 0.000000 10.000000 
eye_right_bone 0.000000 0.000000 0.000000 0.000000 0.000000 0.000000 10.000000 
L_forearm 0.000000 0.000000 0.000000 0.000000 0.000000 0.000000 10.000000 
L_front_hand 0.000000 0.000000 0.000000 0.000000 0.000000 0.000000 10.000000 
L_weapon_bone 0.000000 0.000000 0.000000 0.000000 0.000000 0.000000 10.000000 
L_front_hand01_01 0.000000 0.000000 0.000000 0.000000 0.000000 0.000000 10.000000 
L_front_hand02_01 0.000000 0.000000 0.000000 0.000000 0.000000 0.000000 10.000000 
L_front_hand03_01 0.000000 0.000000 0.000000 0.000000 0.000000 0.000000 10.000000 
L_front_hand01_02 0.000000 0.000000 0.000000 0.000000 0.000000 0.000000 10.000000 
L_front_hand02_02 0.000000 0.000000 0.000000 0.000000 0.000000 0.000000 10.000000 
L_front_hand03_02 0.000000 0.000000 0.000000 0.000000 0.000000 0.000000 10.000000 
R_forearm 0.000000 0.000000 0.000000 0.000000 0.000000 0.000000 10.000000 
R_front_hand 0.000000 0.000000 0.000000 0.000000 0.000000 0.000000 10.000000 
R_weapon_bone 0.000000 0.000000 0.000000 0.000000 0.000000 0.000000 10.000000 
R_front_hand01_01 0.000000 0.000000 0.000000 0.000000 0.000000 0.000000 10.000000 
R_front_hand02_01 0.000000 0.000000 0.000000 0.000000 0.000000 0.000000 10.000000 
R_front_hand03_01 0.000000 0.000000 0.000000 0.000000 0.000000 0.000000 10.000000 
R_front_hand01_02 0.000000 0.000000 0.000000 0.000000 0.000000 0.000000 10.000000 
R_front_hand02_02 0.000000 0.000000 0.000000 0.000000 0.000000 0.000000 10.000000 
R_front_hand03_02 0.000000 0.000000 0.000000 0.000000 0.000000 0.000000 10.000000 
null_rope01_connect 0.000000 0.000000 0.000000 0.000000 0.000000 0.000000 10.000000 
Rope1_Seg01 0.000000 0.000000 0.000000 0.000000 0.000000 0.000000 10.000000 
Rope1_Seg02 0.000000 0.000000 0.000000 0.000000 0.000000 0.000000 10.000000 
Rope1_Seg03 0.000000 0.000000 0.000000 0.000000 0.000000 0.000000 10.000000 
Rope1_Seg04 0.000000 0.000000 0.000000 0.000000 0.000000 0.000000 10.000000 
Rope1_Seg05 0.000000 0.000000 0.000000 0.000000 0.000000 0.000000 10.000000 
Rope1_Seg06 0.000000 0.000000 0.000000 0.000000 0.000000 0.000000 10.000000 
Rope1_Seg07 0.000000 0.000000 0.000000 0.000000 0.000000 0.000000 10.000000 
Rope1_Seg09 0.000000 0.000000 0.000000 0.000000 0.000000 0.000000 10.000000 
L_mid_hand01 0.000000 0.000000 0.000000 0.000000 0.000000 0.000000 10.000000 
L_mid_hand02 0.000000 0.000000 0.000000 0.000000 0.000000 0.000000 10.000000 
L_mid_hand03 0.000000 0.000000 0.000000 0.000000 0.000000 0.000000 10.000000 
null_rope02_connect 0.000000 0.000000 0.000000 0.000000 0.000000 0.000000 10.000000 
Rope2_Seg01 0.000000 0.000000 0.000000 0.000000 0.000000 0.000000 10.000000 
Rope2_Seg02 0.000000 0.000000 0.000000 0.000000 0.000000 0.000000 10.000000 
Rope2_Seg03 0.000000 0.000000 0.000000 0.000000 0.000000 0.000000 10.000000 
Rope2_Seg04 0.000000 0.000000 0.000000 0.000000 0.000000 0.000000 10.000000 
Rope2_Seg05 0.000000 0.000000 0.000000 0.000000 0.000000 0.000000 10.000000 
Rope2_Seg06 0.000000 0.000000 0.000000 0.000000 0.000000 0.000000 10.000000 
Rope2_Seg07 0.000000 0.000000 0.000000 0.000000 0.000000 0.000000 10.000000 
Rope2_Seg09 0.000000 0.000000 0.000000 0.000000 0.000000 0.000000 10.000000 
R_mid_hand01 0.000000 0.000000 0.000000 0.000000 0.000000 0.000000 10.000000 
R_mid_hand02 0.000000 0.000000 0.000000 0.000000 0.000000 0.000000 10.000000 
R_mid_hand03 0.000000 0.000000 0.000000 0.000000 0.000000 0.000000 10.000000 
spine02 0.000000 0.000000 0.000000 0.000000 0.000000 0.000000 10.000000 
spine03 0.000000 0.000000 0.000000 0.000000 0.000000 0.000000 10.000000 
pelvis 0.000000 0.000000 0.000000 0.000000 0.000000 0.000000 10.000000 
null_rope03_connect 0.000000 0.000000 0.000000 0.000000 0.000000 0.000000 10.000000 
null_rope04_connect 0.000000 0.000000 0.000000 0.000000 0.000000 0.000000 10.000000 
Rope3_Seg01 0.000000 0.000000 0.000000 0.000000 0.000000 0.000000 10.000000 
Rope3_Seg02 0.000000 0.000000 0.000000 0.000000 0.000000 0.000000 10.000000 
Rope3_Seg03 0.000000 0.000000 0.000000 0.000000 0.000000 0.000000 10.000000 
Rope3_Seg04 0.000000 0.000000 0.000000 0.000000 0.000000 0.000000 10.000000 
Rope3_Seg05 0.000000 0.000000 0.000000 0.000000 0.000000 0.000000 10.000000 
Rope3_Seg06 0.000000 0.000000 0.000000 0.000000 0.000000 0.000000 10.000000 
Rope3_Seg07 0.000000 0.000000 0.000000 0.000000 0.000000 0.000000 10.000000 
Rope3_Seg08 0.000000 0.000000 0.000000 0.000000 0.000000 0.000000 10.000000 
Rope3_Seg09 0.000000 0.000000 0.000000 0.000000 0.000000 0.000000 10.000000 
R_rear_hand01 0.000000 0.000000 0.000000 0.000000 0.000000 0.000000 10.000000 
R_rear_hand02 0.000000 0.000000 0.000000 0.000000 0.000000 0.000000 10.000000 
R_rear_hand03 0.000000 0.000000 0.000000 0.000000 0.000000 0.000000 10.000000 
Rope4_Seg01 0.000000 0.000000 0.000000 0.000000 0.000000 0.000000 10.000000 
Rope4_Seg02 0.000000 0.000000 0.000000 0.000000 0.000000 0.000000 10.000000 
Rope4_Seg03 0.000000 0.000000 0.000000 0.000000 0.000000 0.000000 10.000000 
Rope4_Seg04 0.000000 0.000000 0.000000 0.000000 0.000000 0.000000 10.000000 
Rope4_Seg05 0.000000 0.000000 0.000000 0.000000 0.000000 0.000000 10.000000 
Rope4_Seg06 0.000000 0.000000 0.000000 0.000000 0.000000 0.000000 10.000000 
Rope4_Seg07 0.000000 0.000000 0.000000 0.000000 0.000000 0.000000 10.000000 
Rope4_Seg08 0.000000 0.000000 0.000000 0.000000 0.000000 0.000000 10.000000 
Rope4_Seg09 0.000000 0.000000 0.000000 0.000000 0.000000 0.000000 10.000000 
L_rear_hand01 0.000000 0.000000 0.000000 0.000000 0.000000 0.000000 10.000000 
L_rear_hand02 0.000000 0.000000 0.000000 0.000000 0.000000 0.000000 10.000000 
L_rear_hand03 0.000000 0.000000 0.000000 0.000000 0.000000 0.000000 10.000000 
#Beginning of Data. Separated by tabs
#Fr	Tx	Ty	Tz	Rx	Ry	Rz	SF
[MASTER]
1 0.000000 0.000000 0.000000 0.001660 0.001660 0.001660 0.000000
2 0.000000 0.000000 0.000000 0.001660 0.001660 0.001660 0.000000
[root]
1 -16.502314 9.364134 1448.320068 -91.728889 -11.584497 -89.471619 1448.444336
2 4.793611 -12.835982 1422.087036 -93.621185 -15.381022 -78.634468 1422.153076
[chest]
1 -84.512650 -34.090519 0.000000 -2.170494 -0.006436 168.239609 91.129311
2 -84.512650 -34.090519 0.000000 -2.155727 -0.007862 168.082993 91.129311
[L_mid_tent01]
1 27.299080 22.179258 -249.918686 -20.661392 12.026043 12.983022 252.381683
2 27.299082 22.179255 -249.918686 -31.386660 24.683064 12.630270 252.381683
[R_mid_tent01]
1 23.228794 24.509907 226.238495 -165.192200 -17.956036 24.056787 228.744751
2 23.228794 24.509907 226.238495 -156.452560 -26.170254 21.434883 228.744751
[spine01]
1 -0.361383 -0.195265 0.000000 -0.000001 -0.000007 22.052340 0.410763
2 -0.361383 -0.195265 0.000000 -0.000001 -0.000007 22.052340 0.410763
[Bip01_Neck]
1 165.484543 71.581718 0.000119 175.896118 1.177290 24.871183 180.302734
2 165.484543 71.581718 0.000119 175.896118 1.177290 24.871181 180.302734
[L_humerus]
1 -13.983130 -135.272980 -120.471481 -5.480129 68.873367 84.573456 181.680161
2 -13.983130 -135.272980 -120.471481 -32.450600 61.839809 61.135029 181.680161
[R_humerus]
1 -13.983309 -135.273102 125.287651 27.897165 -69.888802 67.752319 184.909012
2 -13.983309 -135.273102 125.287651 61.968872 -60.689674 39.191433 184.909012
[weapon_bone]
1 235.964890 -300.705902 0.000000 0.000000 -89.951546 -128.212341 382.234833
2 235.964890 -300.705902 0.000000 0.000000 -89.951546 -128.212341 382.234833
[Bip01_Head]
1 208.154099 144.943085 8.343277 2.562633 1.473292 -62.980957 253.783844
2 204.757431 130.206085 7.180805 2.548348 1.429579 -62.587395 242.756668
[eye_left_bone]
1 26.197966 155.481537 -74.568985 -104.218590 -85.597984 4.718000 174.417252
2 27.073009 155.950851 -74.622498 -104.326553 -85.613403 4.827784 174.991806
[eye_right_bone]
1 36.079254 156.294830 54.149883 75.788536 -85.594551 4.713911 169.298538
2 37.009888 156.808777 54.087696 75.680695 -85.609917 4.823525 169.953537
[L_forearm]
1 322.776093 0.000000 -0.000119 0.000396 -0.002314 -109.419975 322.776093
2 322.776093 0.000000 -0.000119 0.000212 -0.002338 -100.378586 322.776093
[L_front_hand]
1 241.149185 -0.042021 -3.300071 -178.667953 -1.835447 -27.422350 241.171753
2 241.149185 -0.042021 -3.300071 -178.451248 -1.660326 -34.450695 241.171753
[L_weapon_bone]
1 156.183838 0.000000 0.000000 0.000014 0.000007 0.000001 156.183838
2 156.183838 0.000000 0.000000 0.000014 0.000007 0.000001 156.183838
[L_front_hand01_01]
1 86.095154 20.947098 -0.655860 -0.366594 -0.477154 75.385574 88.609184
2 86.095154 20.947098 -0.655860 -0.366594 -0.477154 75.385574 88.609184
[L_front_hand02_01]
1 86.935165 -11.437475 24.513514 154.399796 -59.883835 -61.369587 91.046425
2 86.935165 -11.437475 24.513514 154.399796 -59.883835 -61.369587 91.046425
[L_front_hand03_01]
1 86.637497 -14.123976 -20.424902 -153.913849 58.118122 -62.702866 90.126129
2 86.637497 -14.123976 -20.424902 -153.913864 58.118134 -62.702885 90.126129
[L_front_hand01_02]
1 71.020905 -0.000179 0.000030 0.000334 -0.002323 -106.379684 71.020905
2 71.020905 -0.000179 0.000030 0.000334 -0.002323 -106.379684 71.020905
[L_front_hand02_02]
1 71.020927 -0.000119 0.000060 0.000334 -0.002323 -106.379684 71.020927
2 71.020927 -0.000119 0.000060 0.000334 -0.002323 -106.379684 71.020927
[L_front_hand03_02]
1 71.020905 -0.000060 0.000060 0.000334 -0.002323 -106.379684 71.020905
2 71.020905 -0.000060 0.000060 0.000334 -0.002323 -106.379684 71.020905
[R_forearm]
1 322.776428 -0.000060 0.000030 0.202103 0.065158 -108.062805 322.776428
2 322.776428 -0.000060 0.000030 0.209525 0.012228 -94.143295 322.776428
[R_front_hand]
1 238.847015 -0.006795 2.210259 -2.635298 -10.645461 -26.312506 238.857239
2 238.847015 -0.006795 2.210259 -2.635298 -10.645461 -26.312506 238.857239
[R_weapon_bone]
1 155.664093 0.002503 -0.000030 0.003487 0.001180 -90.988930 155.664078
2 155.664093 0.002503 -0.000030 0.003487 0.001180 -90.988930 155.664078
[R_front_hand01_01]
1 87.624611 14.231146 22.918642 -154.633499 -59.950619 61.746044 91.683487
2 87.624611 14.231146 22.918642 -154.633484 -59.950607 61.746025 91.683487
[R_front_hand02_01]
1 89.356956 14.367283 -19.491137 154.602661 58.302849 63.744389 92.579636
2 89.356956 14.367283 -19.491137 154.602676 58.302864 63.744389 92.579636
[R_front_hand03_01]
1 87.286232 -22.307278 -0.143439 0.162155 -0.423168 -75.767921 90.091743
2 87.286232 -22.307278 -0.143439 0.162155 -0.423168 -75.767921 90.091743
[R_front_hand01_02]
1 71.020905 0.000060 0.000119 0.002323 -0.000334 106.381714 71.020905
2 71.020905 0.000060 0.000119 0.002323 -0.000334 106.381714 71.020905
[R_front_hand02_02]
1 71.020844 -0.000030 -0.000119 0.002323 -0.000334 106.381714 71.020836
2 71.020844 -0.000030 -0.000119 0.002323 -0.000334 106.381714 71.020836
[R_front_hand03_02]
1 71.020905 0.000000 0.000030 0.002323 -0.000334 106.381714 71.020905
2 71.020905 0.000000 0.000030 0.002323 -0.000334 106.381714 71.020905
[null_rope01_connect]
1 328.732483 0.000000 -0.000238 -154.483337 -64.791321 -118.914307 328.732483
2 328.732483 0.000000 -0.000238 -156.327011 -53.149372 -113.953613 328.732483
[Rope1_Seg01]
1 0.000000 0.000000 0.000000 53.964310 3.499730 -122.322021 0.000000
2 0.000000 0.000000 0.000000 11.099190 -5.587086 -95.840118 0.000000
[Rope1_Seg02]
1 139.999863 -0.000179 0.000000 -11.901527 4.307382 1.652451 139.999863
2 139.999863 -0.000179 0.000000 3.674234 -2.088365 -1.960912 139.999863
[Rope1_Seg03]
1 139.999924 0.000060 -0.000060 -12.245733 3.789370 2.282721 139.999924
2 139.999924 0.000060 -0.000060 5.963356 -3.516012 -3.050624 139.999924
[Rope1_Seg04]
1 139.999924 -0.000060 -0.000119 -14.198394 3.791406 3.639138 139.999924
2 139.999924 -0.000060 -0.000119 3.906626 -2.621149 -1.755928 139.999924
[Rope1_Seg05]
1 139.999832 0.000119 -0.000060 -12.517973 2.239779 5.640543 139.999832
2 139.999832 0.000119 -0.000060 -8.659284 5.897750 4.035560 139.999832
[Rope1_Seg06]
1 139.999954 0.000119 -0.000060 -4.758889 0.388186 2.985564 139.999954
2 139.999954 0.000119 -0.000060 -5.028602 3.002527 2.811694 139.999954
[Rope1_Seg07]
1 139.999985 0.000060 0.000000 -2.469439 0.147578 1.720044 139.999985
2 139.999985 0.000060 0.000000 -2.414853 1.324466 1.497498 139.999985
[Rope1_Seg09]
1 121.602913 0.000119 -0.000089 -89.790619 -1.359656 0.847385 121.602913
2 121.602913 0.000119 -0.000089 -89.790619 -1.359656 0.847385 121.602913
[L_mid_hand01]
1 103.859421 1.038730 8.195221 106.830864 -31.109169 -9.415485 104.187431
2 103.859421 1.038730 8.195221 106.590981 -29.754934 -8.944053 104.187431
[L_mid_hand02]
1 105.572853 -4.139662 -10.864139 -142.280319 25.666382 -28.651869 106.211075
2 105.572853 -4.139662 -10.864139 -141.752472 24.800730 -27.423903 106.211075
[L_mid_hand03]
1 104.641464 17.579376 -3.913581 -16.143641 9.695980 34.090794 106.179977
2 104.641464 17.579376 -3.913581 -16.370899 9.301978 32.715267 106.179977
[null_rope02_connect]
1 328.732849 0.000179 -0.000119 -140.208786 68.099197 -35.150627 328.732849
2 328.732849 0.000179 -0.000119 -127.456779 50.269203 -22.967808 328.732849
[Rope2_Seg01]
1 0.000095 0.000153 0.000000 40.737598 7.758507 -46.021622 0.000180
2 0.000095 0.000153 0.000002 9.015404 -1.689228 -36.789318 0.000180
[Rope2_Seg02]
1 139.999741 -0.000060 -0.000119 40.426258 -4.949496 -9.321993 139.999756
2 139.999741 -0.000060 -0.000119 31.829815 5.490157 -11.029042 139.999756
[Rope2_Seg03]
1 140.000107 0.000030 0.000000 25.449125 -3.410375 -7.157996 140.000107
2 140.000107 0.000030 0.000000 37.079231 1.620761 -8.415936 140.000107
[Rope2_Seg04]
1 139.999802 0.000000 -0.000060 -4.881948 -6.814562 5.521027 139.999802
2 139.999802 0.000000 -0.000060 -3.044345 -10.669209 6.032496 139.999802
[Rope2_Seg05]
1 139.999985 -0.000060 0.000119 -12.456758 -7.003411 12.796078 139.999985
2 139.999985 -0.000060 0.000119 -2.362871 -6.177787 4.137734 139.999985
[Rope2_Seg06]
1 139.999893 -0.000030 -0.000119 -2.941860 -4.528515 4.897282 139.999893
2 139.999893 -0.000030 -0.000119 -0.141201 -2.895362 1.345966 139.999893
[Rope2_Seg07]
1 139.999893 0.000060 -0.000060 -1.067179 -2.647984 2.356625 139.999893
2 139.999893 0.000060 -0.000060 -0.096511 -1.867216 0.863903 139.999893
[Rope2_Seg09]
1 121.338966 0.000089 -0.000060 33.793236 -1.359788 -0.847141 121.338966
2 121.338966 0.000089 -0.000060 33.793236 -1.359788 -0.847141 121.338966
[R_mid_hand01]
1 104.680779 11.144459 -10.335981 -41.326168 25.790571 29.054953 105.778534
2 104.680779 11.144459 -10.335981 -41.954803 24.607397 27.581720 105.778534
[R_mid_hand02]
1 104.070427 2.443552 8.231699 72.744827 -33.271915 10.207475 104.424065
2 104.070427 2.443552 8.231699 73.070992 -31.567533 9.589904 104.424065
[R_mid_hand03]
1 106.028137 -11.221827 -5.996406 -167.997543 10.373524 -37.556538 106.788818
2 106.028137 -11.221827 -5.996406 -167.685638 9.998048 -35.785023 106.788818
[spine02]
1 129.756927 0.001550 0.000119 0.360061 -4.044797 -12.915058 129.756927
2 129.756927 0.001550 0.000119 0.586851 -4.017062 -16.150757 129.756927
[spine03]
1 78.614067 0.081635 -4.899006 1.896495 3.831288 16.473045 78.766602
2 78.614067 0.081635 -4.899006 1.060456 4.143548 4.485423 78.766602
[pelvis]
1 169.435242 0.051022 0.000000 -0.060465 -0.180225 14.087930 169.435257
2 169.435242 0.051022 0.000000 -0.060747 -0.180131 14.267363 169.435257
[null_rope03_connect]
1 -1.257226 -2.466202 137.391083 156.329987 -89.381348 -94.430771 137.418976
2 -1.257226 -2.466202 137.391083 101.725647 -79.156197 -20.738535 137.418976
[null_rope04_connect]
1 -1.259640 -2.480268 -137.844437 156.329987 -89.381348 -94.430771 137.872513
2 -1.259640 -2.480268 -137.844437 101.725647 -79.156197 -20.738535 137.872513
[Rope3_Seg01]
1 0.000010 0.000038 -0.000153 -136.844208 36.173473 -83.494156 0.000158
2 0.000010 0.000037 -0.000148 -135.108948 38.322887 -79.620537 0.000153
[Rope3_Seg02]
1 139.999924 -0.000119 0.000060 0.951050 2.347551 -4.154956 139.999924
2 139.999924 -0.000119 0.000060 0.586727 0.656132 -5.026507 139.999924
[Rope3_Seg03]
1 139.999924 -0.000119 0.000119 0.959856 3.206626 -5.941212 139.999924
2 139.999924 -0.000119 0.000119 0.398053 0.864294 -7.226027 139.999924
[Rope3_Seg04]
1 139.999924 0.000119 0.000000 -0.244420 7.319942 -17.506418 139.999924
2 139.999924 0.000119 0.000000 -1.173821 1.073533 -17.902954 139.999924
[Rope3_Seg05]
1 139.999924 -0.000238 0.000060 0.035083 2.786700 -0.863245 139.999924
2 139.999924 -0.000238 0.000060 -3.188501 2.283796 -13.737607 139.999924
[Rope3_Seg06]
1 139.999893 -0.000119 -0.000060 -1.465404 -4.329573 17.983389 139.999893
2 139.999893 -0.000119 -0.000060 3.022823 0.444636 19.943064 139.999893
[Rope3_Seg07]
1 139.999771 0.000060 -0.000119 -0.453327 -1.041545 5.383980 139.999771
2 139.999771 0.000060 -0.000119 0.666695 0.798344 7.916133 139.999771
[Rope3_Seg08]
1 139.999985 -0.000060 0.000000 -0.097172 -0.574689 2.935300 139.999985
2 139.999985 -0.000060 0.000000 0.457319 0.507426 3.451410 139.999985
[Rope3_Seg09]
1 90.185997 -0.000179 -0.000060 89.795311 -1.358474 -0.848592 90.185997
2 90.185997 -0.000179 -0.000060 84.270485 -1.359018 -0.847107 90.185997
[R_rear_hand01]
1 103.366196 -6.073594 -10.757982 -161.514954 16.622681 -29.959044 104.101845
2 103.366196 -6.073594 -10.757982 -161.070709 16.114294 -28.383715 104.101845
[R_rear_hand02]
1 100.509819 12.039542 -7.992327 -34.319695 19.215910 28.760387 101.543350
2 100.509819 12.039542 -7.992327 -34.767273 18.310900 27.372818 101.543350
[R_rear_hand03]
1 101.539970 5.215704 5.435467 83.373177 -30.802664 7.266830 101.819031
2 101.539970 5.215704 5.435467 83.483650 -29.219656 7.057811 101.819031
[Rope4_Seg01]
1 0.000010 0.000038 -0.000114 47.288296 30.296547 -105.334633 0.000121
2 0.000010 0.000038 -0.000114 54.988667 32.499954 -90.451637 0.000121
[Rope4_Seg02]
1 139.999985 0.000060 0.000119 -0.277958 -0.455821 3.128860 139.999985
2 139.999985 0.000060 0.000119 -1.072831 -2.637623 2.396240 139.999985
[Rope4_Seg03]
1 139.999924 0.000000 -0.000238 -0.498767 -0.662311 4.372753 139.999924
2 139.999924 0.000000 -0.000238 -1.365343 -3.696110 3.242934 139.999924
[Rope4_Seg04]
1 139.999985 0.000000 0.000119 -2.724193 -3.466302 14.056075 139.999985
2 139.999985 0.000000 0.000119 -3.837611 -10.706627 9.820329 139.999985
[Rope4_Seg05]
1 139.999802 -0.000060 -0.000119 1.062858 3.418844 -4.425980 139.999802
2 139.999802 -0.000060 -0.000119 0.309472 0.312062 -1.392221 139.999802
[Rope4_Seg06]
1 139.999924 0.000000 0.000060 2.237676 5.064818 -12.690770 139.999924
2 139.999924 0.000000 0.000060 1.962346 10.014458 -9.500436 139.999924
[Rope4_Seg07]
1 139.999802 0.000000 0.000000 0.818299 1.508101 -3.752334 139.999802
2 139.999802 0.000000 0.000000 1.059893 2.710885 -2.961757 139.999802
[Rope4_Seg08]
1 139.999924 0.000000 0.000119 -1.067186 0.817851 -2.127926 139.999924
2 139.999924 0.000000 0.000119 -0.876419 1.497299 -1.706421 139.999924
[Rope4_Seg09]
1 90.185791 0.000060 0.000060 -135.615479 2.230401 0.852983 90.185791
2 90.185791 0.000060 0.000060 -140.195114 2.230704 0.851553 90.185791
[L_rear_hand01]
1 101.696655 -8.392275 -7.654577 -34.494175 -18.868284 151.776016 102.329041
2 101.696655 -8.392275 -7.654577 -34.974575 -17.870222 153.297684 102.329041
[L_rear_hand02]
1 102.726799 -1.568258 5.773216 83.420067 30.192865 172.817169 102.900848
2 102.726799 -1.568258 5.773216 83.532455 28.446354 173.043457 102.900848
[L_rear_hand03]
1 104.552910 9.721220 -10.420293 -161.342361 -16.429968 -150.651169 105.519653
2 104.552910 9.721220 -10.420293 -160.858841 -15.862107 -152.380615 105.519653
